# xmcd
#
# Track frame offsets: 
#        150
#        14494
#        16411
#        29866
#        43807
#        61257
#        63427
#        78698
#        86204
#        107447
#        123523
#        132256
#        149095
#        165157
#        173123
#        188286
#
# Disc length: 2558 seconds
#
# Revision: 2
# Processed by: cddbd v1.5.2PL0 Copyright (c) Steve Scherf et al.
# Submitted via: ExactAudioCopy v0.99pb5
#
DISCID=dc09fc10
DTITLE=Feufollet - En Couleurs
DYEAR=2010
DGENRE=Folk
TTITLE0=Au Fond Du Lac
TTITLE1=Vert
TTITLE2=Des Promesses
TTITLE3=La Berceuse Du Vieux Voyageur
TTITLE4=Si T'as Fini Avec Moi
TTITLE5=Violet
TTITLE6=Ouvre La Porte
TTITLE7=Assis Dans La Fenêtre De Ma Chambre
TTITLE8=Les Jours Sont Longs
TTITLE9=Valse Du Vacher 
TTITLE10=La Valse De Gene Billeaudeaux
TTITLE11=À Saint-Martin
TTITLE12=Mon Tour Va Venir
TTITLE13=Bleu
TTITLE14=Toujours En Movement
TTITLE15=Rouge
EXTD=
EXTT0=
EXTT1=
EXTT2=
EXTT3=
EXTT4=
EXTT5=
EXTT6=
EXTT7=
EXTT8=
EXTT9=
EXTT10=
EXTT11=
EXTT12=
EXTT13=
EXTT14=
EXTT15=
PLAYORDER=
